<svg xmlns="http://www.w3.org/2000/svg" width="31.5" height="19.748" viewBox="0 0 31.5 19.748">
  <path id="Behance" d="M-3.063-11.528A4.15,4.15,0,0,0-.416-15.575c0-3.861-2.877-4.8-6.2-4.8H-15.75V-1h9.4c3.522,0,6.83-1.69,6.83-5.627A4.67,4.67,0,0,0-3.063-11.528Zm-8.427-5.54h4c1.537,0,2.92.432,2.92,2.215,0,1.646-1.077,2.308-2.6,2.308h-4.32Zm4.555,12.78H-11.49V-9.625h4.643c1.876,0,3.062.782,3.062,2.767C-3.784-4.9-5.2-4.288-6.934-4.288ZM12.671-17.451v-1.909H4.812v1.909ZM15.75-7.809c0-4.151-2.428-7.612-6.83-7.612-4.277,0-7.18,3.216-7.18,7.427,0,4.37,2.751,7.366,7.18,7.366a6.256,6.256,0,0,0,6.568-4.72h-3.4A3.193,3.193,0,0,1,9.04-3.516c-2.259,0-3.445-1.323-3.445-3.571H15.717C15.734-7.317,15.75-7.563,15.75-7.809ZM5.6-9.516a3.012,3.012,0,0,1,3.2-3c1.936,0,2.909,1.137,3.073,3Z" transform="translate(15.75 20.376)" fill="#2c2d48"/>
</svg>
