<svg xmlns="http://www.w3.org/2000/svg" width="27.125" height="27.125" viewBox="0 0 27.125 27.125">
  <path id="Dribbble" d="M0-24.062A13.578,13.578,0,0,0-13.563-10.5,13.578,13.578,0,0,0,0,3.062,13.578,13.578,0,0,0,13.562-10.5,13.578,13.578,0,0,0,0-24.062Zm8.967,6.254a11.529,11.529,0,0,1,2.616,7.216,27.07,27.07,0,0,0-8.066-.373C3.2-11.733,2.905-12.408,2.5-13.24A15.431,15.431,0,0,0,8.967-17.808Zm-1.288-1.34a13.079,13.079,0,0,1-6.071,4.185,61.841,61.841,0,0,0-4.322-6.782A11.555,11.555,0,0,1,7.679-19.148Zm-12.6-1.818a73.921,73.921,0,0,1,4.295,6.7,43.209,43.209,0,0,1-10.71,1.411A11.627,11.627,0,0,1-4.925-20.966Zm-6.659,10.484c0-.118,0-.236.006-.354A42.731,42.731,0,0,0,.327-12.485c.332.649.648,1.308.939,1.966A17.943,17.943,0,0,0-8.606-2.737,11.538,11.538,0,0,1-11.584-10.482Zm4.474,9.139C-5.9-3.817-2.617-7.01,2.054-8.6A48.155,48.155,0,0,1,4.525.181,11.561,11.561,0,0,1-7.111-1.343ZM6.473-.879a50.006,50.006,0,0,0-2.251-8.26,17,17,0,0,1,7.216.5A11.6,11.6,0,0,1,6.473-.879Z" transform="translate(13.563 24.062)" fill="#2c2d48"/>
</svg>
