<svg xmlns="http://www.w3.org/2000/svg" width="24.514" height="24.508" viewBox="0 0 24.514 24.508">
  <path id="Instagram" d="M.005-16.789a6.274,6.274,0,0,0-6.284,6.284A6.274,6.274,0,0,0,.005-4.222a6.274,6.274,0,0,0,6.284-6.284A6.274,6.274,0,0,0,.005-16.789Zm0,10.369A4.093,4.093,0,0,1-4.08-10.505,4.089,4.089,0,0,1,.005-14.591a4.089,4.089,0,0,1,4.085,4.085A4.093,4.093,0,0,1,.005-6.42ZM8.012-17.046a1.466,1.466,0,0,0-1.466-1.466A1.466,1.466,0,0,0,5.08-17.046,1.462,1.462,0,0,0,6.546-15.58,1.462,1.462,0,0,0,8.012-17.046Zm4.162,1.488a7.253,7.253,0,0,0-1.98-5.135,7.3,7.3,0,0,0-5.135-1.98c-2.023-.115-8.088-.115-10.112,0A7.29,7.29,0,0,0-10.188-20.7a7.277,7.277,0,0,0-1.98,5.135c-.115,2.023-.115,8.088,0,10.112a7.253,7.253,0,0,0,1.98,5.135,7.31,7.31,0,0,0,5.135,1.98c2.023.115,8.088.115,10.112,0a7.253,7.253,0,0,0,5.135-1.98,7.3,7.3,0,0,0,1.98-5.135C12.288-7.476,12.288-13.535,12.173-15.559ZM9.559-3.281A4.136,4.136,0,0,1,7.23-.952c-1.613.64-5.441.492-7.224.492s-5.616.142-7.224-.492a4.136,4.136,0,0,1-2.33-2.33c-.64-1.613-.492-5.441-.492-7.224s-.142-5.616.492-7.224a4.136,4.136,0,0,1,2.33-2.33c1.613-.64,5.441-.492,7.224-.492s5.616-.142,7.224.492a4.136,4.136,0,0,1,2.33,2.33c.64,1.613.492,5.441.492,7.224S10.2-4.889,9.559-3.281Z" transform="translate(12.254 22.76)" fill="#2c2d48"/>
</svg>
