<svg xmlns="http://www.w3.org/2000/svg" width="24.5" height="24.499" viewBox="0 0 24.5 24.499">
  <path id="LinkedIn" d="M-6.766,0V-16.357h-5.079V0ZM-9.308-18.588a2.966,2.966,0,0,0,2.942-2.97A2.943,2.943,0,0,0-9.308-24.5a2.943,2.943,0,0,0-2.942,2.942A2.966,2.966,0,0,0-9.308-18.588ZM12.244,0h.005V-8.985c0-4.4-.945-7.782-6.086-7.782a5.337,5.337,0,0,0-4.806,2.641H1.287v-2.231H-3.584V0H1.49V-8.1c0-2.133.4-4.195,3.046-4.195,2.6,0,2.641,2.434,2.641,4.331V0Z" transform="translate(12.25 24.499)" fill="#2c2d48"/>
</svg>
