<svg version="1.1" id="load-more" xmlns="http://www.w3.org/2000/svg" xmlns:xlink="http://www.w3.org/1999/xlink" x="0px" y="0px" viewBox="0 0 16 16" xml:space="preserve">
<path class="icon__load-more" d="M8,0c4.4,0,8,3.6,8,8c0,4.4-3.6,8-8,8c-2,0-3.9-0.7-5.4-2.1c-0.2-0.1-0.2-0.4,0-0.5c0,0,0,0,0,0l1.3-1.3
	c0.1-0.1,0.4-0.2,0.5,0c1,0.9,2.3,1.3,3.6,1.3c3,0,5.4-2.4,5.4-5.4c0-3-2.4-5.4-5.4-5.5c0,0-0.1,0-0.1,0C6.6,2.6,5.3,3.1,4.3,4
	l1.3,1.3c0.3,0.3,0.3,0.8,0,1.1C5.5,6.6,5.3,6.7,5.1,6.7H0.8C0.3,6.7,0,6.4,0,5.9l0,0V1.6c0-0.4,0.3-0.8,0.8-0.8
	c0.2,0,0.4,0.1,0.5,0.2l1.2,1.2C4,0.8,5.9,0,8,0z"/>
</svg>
