<svg xmlns="http://www.w3.org/2000/svg" width="172.328" height="45.161" viewBox="0 0 172.328 45.161">
  <g id="Group_5" data-name="Group 5" transform="translate(-7 14)">
    <path id="Path_2364" data-name="Path 2364" d="M-71.962-34.656a12,12,0,0,1,4.985.9,17.1,17.1,0,0,1,3.469,2.09q.919.689,1.4.161a4.844,4.844,0,0,0,.666-2.5h1.057q-.092,1.838-.138,4.479t-.046,7.006h-1.057a26.3,26.3,0,0,0-.6-3.928,10.313,10.313,0,0,0-1.24-3.055,7.6,7.6,0,0,0-2.389-2.343A8.764,8.764,0,0,0-67.9-32.864a6.867,6.867,0,0,0-2.228-.368,6.429,6.429,0,0,0-4.319,1.447,9.568,9.568,0,0,0-2.642,3.767,20.728,20.728,0,0,0-1.309,5.054,39.818,39.818,0,0,0-.368,5.306,39.818,39.818,0,0,0,.368,5.306A20.728,20.728,0,0,0-77.084-7.3,9.568,9.568,0,0,0-74.443-3.53a6.429,6.429,0,0,0,4.319,1.447A6.5,6.5,0,0,0-67.9-2.474a10.946,10.946,0,0,0,2.044-.988,7.054,7.054,0,0,0,3.1-3.813,26.921,26.921,0,0,0,1.126-6.156h1.057q0,4.5.046,7.282t.138,4.663h-1.057a5.134,5.134,0,0,0-.62-2.481q-.436-.505-1.447.138a24.042,24.042,0,0,1-3.606,2.09,11.543,11.543,0,0,1-4.893.9,19.9,19.9,0,0,1-9.1-1.976,14.335,14.335,0,0,1-6.064-5.7,17.56,17.56,0,0,1-2.159-8.959,17.689,17.689,0,0,1,2.228-9A15.76,15.76,0,0,1-80.967-32.5,18.3,18.3,0,0,1-71.962-34.656Zm27.887,8.683a8.5,8.5,0,0,1,6.363,2.366q2.32,2.366,2.32,7.925h-14.38l-.092-.873H-42.1a29.792,29.792,0,0,0-.184-4.158,11.016,11.016,0,0,0-.735-3.055q-.505-1.149-1.378-1.149-1.24,0-2.021,1.953a22.993,22.993,0,0,0-1.011,6.685l.184.368q-.046.459-.046.919v.965a12.546,12.546,0,0,0,.8,5.008A5.121,5.121,0,0,0-44.466-6.54a4.944,4.944,0,0,0,2.458.689,8.964,8.964,0,0,0,2.481-.482,6.414,6.414,0,0,0,3.078-2.6l.781.276A13.57,13.57,0,0,1-37.437-5a9.955,9.955,0,0,1-3.147,2.986A8.868,8.868,0,0,1-45.27-.843a11.893,11.893,0,0,1-5.352-1.194,8.651,8.651,0,0,1-3.836-3.951,16.214,16.214,0,0,1-1.424-7.4,14.585,14.585,0,0,1,1.562-7.19,9.679,9.679,0,0,1,4.25-4.089A13.507,13.507,0,0,1-44.075-25.973Zm27.887,0a4.112,4.112,0,0,1,2.573.712,3.756,3.756,0,0,1,1.286,1.792,6.6,6.6,0,0,1,.368,2.136,4.538,4.538,0,0,1-1.172,3.285,4.049,4.049,0,0,1-3.055,1.217,4.47,4.47,0,0,1-3.055-.919,3.047,3.047,0,0,1-1.034-2.389,4.587,4.587,0,0,1,.666-2.573,6.109,6.109,0,0,1,1.677-1.7,3.244,3.244,0,0,0-1.47.322,4.419,4.419,0,0,0-1.355.942,4.848,4.848,0,0,0-.988,1.424A4.094,4.094,0,0,0-22.115-20V-6.218A3.82,3.82,0,0,0-21.2-3.232a4.678,4.678,0,0,0,3.032.781v.965q-1.057-.046-3.147-.115t-4.3-.069q-2.067,0-4.181.069t-3.17.115v-.965a2.482,2.482,0,0,0,2-.689,4.28,4.28,0,0,0,.574-2.619V-20.322a6.5,6.5,0,0,0-.551-3.055,2.109,2.109,0,0,0-2.021-.988v-.965q1.47.138,2.848.138,2.3,0,4.3-.161a35.092,35.092,0,0,0,3.7-.482v3.308a6.239,6.239,0,0,1,1.47-1.953,5.724,5.724,0,0,1,2-1.126A7.879,7.879,0,0,1-16.189-25.973Zm29.035.643v.965A4.15,4.15,0,0,0,11.17-23.1a10.34,10.34,0,0,0-1.585,3.193L3.383-1.486q-1.1-.092-2.228-.092t-2.228.092L-9.068-21.792a4.248,4.248,0,0,0-1.424-2.159,2.668,2.668,0,0,0-1.24-.413v-.965q1.838.138,3.813.207t4.364.069q1.424,0,3.009-.092t2.963-.184v.965A14.618,14.618,0,0,0,.925-24.3a1.418,1.418,0,0,0-.965.413,1.518,1.518,0,0,0-.115,1.263L4.991-8.285l-.6.919,2.573-7.672q1.562-4.64.551-6.914a3.536,3.536,0,0,0-3.032-2.412v-.965q.965.092,2.481.138t2.343.046q.827,0,1.93-.046A13.019,13.019,0,0,0,12.847-25.33Zm13.047-.643a8.5,8.5,0,0,1,6.363,2.366q2.32,2.366,2.32,7.925H20.2l-.092-.873H27.87a29.791,29.791,0,0,0-.184-4.158,11.016,11.016,0,0,0-.735-3.055q-.505-1.149-1.378-1.149-1.24,0-2.021,1.953a22.993,22.993,0,0,0-1.011,6.685l.184.368q-.046.459-.046.919v.965a12.546,12.546,0,0,0,.8,5.008A5.121,5.121,0,0,0,25.5-6.54a4.944,4.944,0,0,0,2.458.689,8.964,8.964,0,0,0,2.481-.482,6.414,6.414,0,0,0,3.078-2.6l.781.276A13.57,13.57,0,0,1,32.533-5a9.955,9.955,0,0,1-3.147,2.986A8.868,8.868,0,0,1,24.7-.843a11.893,11.893,0,0,1-5.352-1.194,8.651,8.651,0,0,1-3.836-3.951,16.214,16.214,0,0,1-1.424-7.4,14.585,14.585,0,0,1,1.562-7.19,9.679,9.679,0,0,1,4.25-4.089A13.507,13.507,0,0,1,25.894-25.973Zm31.149.459L46.752-2.175H47.4a8.333,8.333,0,0,0,3.469-.781A7.18,7.18,0,0,0,53.85-5.644a10.915,10.915,0,0,0,1.493-5.306h.919q0,3.629.046,5.858t.138,3.79q-2.113-.092-4.41-.138t-4.594-.046q-2.389,0-4.916.069T37.7-1.256L47.992-24.595h-.919a7.932,7.932,0,0,0-3.377.781,6.708,6.708,0,0,0-2.848,2.688A12.048,12.048,0,0,0,39.4-15.82h-.919q0-3.675-.046-5.881T38.3-25.468q2.159.092,4.456.138t4.548.046q2.435,0,4.939-.069T57.043-25.514ZM65.864-1.164q-3.124,0-4.525-1.677a5.875,5.875,0,0,1-1.4-3.882,5.467,5.467,0,0,1,.873-3.216,6.752,6.752,0,0,1,2.274-2.021,17.758,17.758,0,0,1,2.963-1.309q1.562-.528,2.963-1.034a8.5,8.5,0,0,0,2.274-1.172,2.072,2.072,0,0,0,.873-1.723v-4.089a5.816,5.816,0,0,0-.253-1.608,3.3,3.3,0,0,0-.942-1.516,2.934,2.934,0,0,0-2.067-.643,4.7,4.7,0,0,0-1.4.207,3.98,3.98,0,0,0-1.172.574A4.7,4.7,0,0,1,68.666-22.6,4.116,4.116,0,0,1,69.4-20.23a3.544,3.544,0,0,1-1.286,2.894,4.63,4.63,0,0,1-3.032,1.057,3.594,3.594,0,0,1-2.848-1.149,4.156,4.156,0,0,1-1.011-2.848,4.015,4.015,0,0,1,.712-2.412A6.765,6.765,0,0,1,64.072-24.5a10.376,10.376,0,0,1,3.308-1.126,22.971,22.971,0,0,1,4.043-.345,18.936,18.936,0,0,1,4.181.436,6.508,6.508,0,0,1,3.308,1.861,4.811,4.811,0,0,1,1.24,2.527,22.55,22.55,0,0,1,.276,3.905V-4.932a5,5,0,0,0,.161,1.562.578.578,0,0,0,.574.413,1.267,1.267,0,0,0,.712-.23q.345-.23.666-.459L83-2.864a6.367,6.367,0,0,1-2.5,1.286,11.741,11.741,0,0,1-3.147.413q-2.986,0-3.974-1.057A3.855,3.855,0,0,1,72.3-4.656a7.6,7.6,0,0,1-2.481,2.5A7.268,7.268,0,0,1,65.864-1.164ZM70.458-4.84a2.337,2.337,0,0,0,.9-.161,2.324,2.324,0,0,0,.8-.62v-9.694a5.572,5.572,0,0,1-1.149,1.447q-.689.62-1.355,1.332a5.864,5.864,0,0,0-1.1,1.746,6.846,6.846,0,0,0-.436,2.642,3.845,3.845,0,0,0,.666,2.573A2.167,2.167,0,0,0,70.458-4.84Z" transform="translate(96.328 32.004)" fill="#2c2d48"/>
    <path id="Path_2363" data-name="Path 2363" d="M-62.7-11.379q.413.015,1.1.031t1.378.015q.75,0,1.447-.015t.988-.015a5.324,5.324,0,0,1,2.979.674,2.023,2.023,0,0,1,.988,1.73,2.05,2.05,0,0,1-.352,1.095,3.161,3.161,0,0,1-1.08,1,5.05,5.05,0,0,1-1.861.6v.031a6.677,6.677,0,0,1,2.4.513,3.132,3.132,0,0,1,1.294,1,2.113,2.113,0,0,1,.4,1.21A2.46,2.46,0,0,1-54.2-1.279a6.032,6.032,0,0,1-3.231.743q-.368,0-1.072-.023t-1.685-.023q-.72,0-1.409.008t-1.1.038V-.843a2.546,2.546,0,0,0,.712-.123.534.534,0,0,0,.322-.368,3.028,3.028,0,0,0,.084-.827v-7.6a3.016,3.016,0,0,0-.084-.835.555.555,0,0,0-.322-.368,2.116,2.116,0,0,0-.712-.115Zm4.778.306q-.567,0-.727.26a2.284,2.284,0,0,0-.161,1.057v7.6a1.773,1.773,0,0,0,.2,1.034,1.072,1.072,0,0,0,.827.237,1.582,1.582,0,0,0,1.432-.7A3.644,3.644,0,0,0-55.9-3.569a2.645,2.645,0,0,0-.574-1.822,2.448,2.448,0,0,0-1.907-.643H-59.6v-.26h1.317a1.386,1.386,0,0,0,1.011-.345,1.857,1.857,0,0,0,.49-.919,5.272,5.272,0,0,0,.138-1.233,3.819,3.819,0,0,0-.3-1.708A1.028,1.028,0,0,0-57.926-11.072ZM-50.3-.429a1.867,1.867,0,0,1-1.493-.544,1.942,1.942,0,0,1-.467-1.309,1.8,1.8,0,0,1,.3-1.064,2.27,2.27,0,0,1,.773-.681,6.191,6.191,0,0,1,1-.436q.521-.176,1-.352a2.962,2.962,0,0,0,.766-.4.691.691,0,0,0,.291-.574V-7.06a2,2,0,0,0-.1-.636,1,1,0,0,0-.352-.49,1.13,1.13,0,0,0-.7-.191,1.89,1.89,0,0,0-.536.077,1.247,1.247,0,0,0-.459.245,1.419,1.419,0,0,1,.727.505,1.273,1.273,0,0,1,.237.75,1.11,1.11,0,0,1-.391.9,1.391,1.391,0,0,1-.926.329,1.114,1.114,0,0,1-.9-.368,1.322,1.322,0,0,1-.314-.888,1.274,1.274,0,0,1,.23-.773,2.19,2.19,0,0,1,.674-.574,3.4,3.4,0,0,1,1.072-.383,6.95,6.95,0,0,1,1.332-.123,5.662,5.662,0,0,1,1.325.145,2.14,2.14,0,0,1,1.034.574,1.634,1.634,0,0,1,.429.858A7.406,7.406,0,0,1-45.66-5.82v4.135a1.382,1.382,0,0,0,.069.528.231.231,0,0,0,.222.145.509.509,0,0,0,.276-.077,1.9,1.9,0,0,0,.23-.168l.168.26a2.374,2.374,0,0,1-.8.421,3.281,3.281,0,0,1-1,.145A1.671,1.671,0,0,1-47.758-.8a1.31,1.31,0,0,1-.337-.842,2.639,2.639,0,0,1-.888.888A2.518,2.518,0,0,1-50.3-.429Zm1.363-1.1a.9.9,0,0,0,.421-.1,1.16,1.16,0,0,0,.375-.345V-5.161a1.652,1.652,0,0,1-.444.5q-.276.207-.559.444a2.012,2.012,0,0,0-.475.59,1.957,1.957,0,0,0-.191.934,1.287,1.287,0,0,0,.253.9A.819.819,0,0,0-48.937-1.532Zm10.092-7.152a1.381,1.381,0,0,1,.827.222,1.271,1.271,0,0,1,.444.567,1.825,1.825,0,0,1,.138.681A1.416,1.416,0,0,1-37.8-6.2a1.233,1.233,0,0,1-.942.383,1.372,1.372,0,0,1-.934-.283.96.96,0,0,1-.322-.758,1.368,1.368,0,0,1,.207-.781,1.99,1.99,0,0,1,.513-.521.829.829,0,0,0-.444.061,1.19,1.19,0,0,0-.6.345,1.973,1.973,0,0,0-.406.613,1.813,1.813,0,0,0-.145.712v4.319a1.219,1.219,0,0,0,.329,1,1.694,1.694,0,0,0,1.049.26v.322q-.352-.015-1.041-.038T-41.954-.6q-.658,0-1.325.023t-.988.038V-.858a.924.924,0,0,0,.712-.23,1.344,1.344,0,0,0,.207-.873V-6.8a2.024,2.024,0,0,0-.2-1.018.771.771,0,0,0-.72-.329v-.322q.49.046.949.046.689,0,1.309-.054a9.9,9.9,0,0,0,1.141-.161v1.256a2.293,2.293,0,0,1,.482-.689,2.152,2.152,0,0,1,.689-.452A2.211,2.211,0,0,1-38.845-8.684Zm7.014,0a2.392,2.392,0,0,1,1.937.957,4.647,4.647,0,0,1,.773,2.948A6.076,6.076,0,0,1-29.6-2.137a2.963,2.963,0,0,1-1.286,1.4,3.81,3.81,0,0,1-1.769.413A3.806,3.806,0,0,1-33.707-.46a2.166,2.166,0,0,1-.881-.505l.2-.153a1.538,1.538,0,0,0,.551.36,1.7,1.7,0,0,0,.6.115q.781,0,1.156-.957a8.432,8.432,0,0,0,.375-2.9,11.543,11.543,0,0,0-.145-2.083,2.37,2.37,0,0,0-.413-1.064.812.812,0,0,0-.636-.314,1.223,1.223,0,0,0-.865.375,1.447,1.447,0,0,0-.421,1.018l-.031-.643a2.221,2.221,0,0,1,.934-1.1A2.827,2.827,0,0,1-31.831-8.684Zm-2.343-3.828V-.674a2.589,2.589,0,0,0-.9-.115,3.087,3.087,0,0,0-.842.153,1.675,1.675,0,0,0-.613.345l-.23-.138a1.612,1.612,0,0,0,.092-.429q.015-.214.015-.429v-9.387a2.092,2.092,0,0,0-.191-1.018.769.769,0,0,0-.727-.329v-.322q.49.046.949.046.7,0,1.317-.054A9.924,9.924,0,0,0-34.174-12.512ZM-26.241-.429a1.867,1.867,0,0,1-1.493-.544A1.942,1.942,0,0,1-28.2-2.282a1.8,1.8,0,0,1,.3-1.064,2.27,2.27,0,0,1,.773-.681,6.191,6.191,0,0,1,1-.436q.521-.176,1-.352a2.962,2.962,0,0,0,.766-.4.691.691,0,0,0,.291-.574V-7.06a2,2,0,0,0-.1-.636,1,1,0,0,0-.352-.49,1.13,1.13,0,0,0-.7-.191,1.89,1.89,0,0,0-.536.077,1.247,1.247,0,0,0-.459.245,1.419,1.419,0,0,1,.727.505,1.273,1.273,0,0,1,.237.75,1.11,1.11,0,0,1-.391.9,1.391,1.391,0,0,1-.926.329,1.114,1.114,0,0,1-.9-.368,1.322,1.322,0,0,1-.314-.888,1.274,1.274,0,0,1,.23-.773,2.19,2.19,0,0,1,.674-.574,3.4,3.4,0,0,1,1.072-.383,6.95,6.95,0,0,1,1.332-.123,5.662,5.662,0,0,1,1.325.145,2.14,2.14,0,0,1,1.034.574,1.634,1.634,0,0,1,.429.858A7.406,7.406,0,0,1-21.6-5.82v4.135a1.382,1.382,0,0,0,.069.528.231.231,0,0,0,.222.145.509.509,0,0,0,.276-.077,1.9,1.9,0,0,0,.23-.168l.168.26a2.374,2.374,0,0,1-.8.421,3.281,3.281,0,0,1-1,.145A1.671,1.671,0,0,1-23.7-.8a1.31,1.31,0,0,1-.337-.842,2.639,2.639,0,0,1-.888.888A2.518,2.518,0,0,1-26.241-.429Zm1.363-1.1a.9.9,0,0,0,.421-.1,1.16,1.16,0,0,0,.375-.345V-5.161a1.652,1.652,0,0,1-.444.5q-.276.207-.559.444a2.012,2.012,0,0,0-.475.59,1.957,1.957,0,0,0-.191.934,1.287,1.287,0,0,0,.253.9A.819.819,0,0,0-24.879-1.532Zm12.144-7.152a4.617,4.617,0,0,1,1.149.13,3,3,0,0,1,.827.329,1.99,1.99,0,0,1,.643.628,1.612,1.612,0,0,1,.245.888,1.334,1.334,0,0,1-.383.972,1.3,1.3,0,0,1-.965.391A1.257,1.257,0,0,1-12.16-5.7a1.238,1.238,0,0,1-.345-.9,1.288,1.288,0,0,1,.337-.9,1.636,1.636,0,0,1,.8-.49.92.92,0,0,0-.314-.2,1.213,1.213,0,0,0-.452-.077,1.3,1.3,0,0,0-.873.3,2.172,2.172,0,0,0-.574.812,4.723,4.723,0,0,0-.322,1.149,8.451,8.451,0,0,0-.1,1.309,4.248,4.248,0,0,0,.3,1.769,1.89,1.89,0,0,0,.75.888,1.876,1.876,0,0,0,.926.253,2.692,2.692,0,0,0,.9-.2A2.277,2.277,0,0,0-10.1-2.925l.26.092a4.027,4.027,0,0,1-.567,1.179A3.236,3.236,0,0,1-11.433-.7a2.935,2.935,0,0,1-1.531.375,4,4,0,0,1-1.83-.413A3.032,3.032,0,0,1-16.1-2.068a5.105,5.105,0,0,1-.49-2.4,4.91,4.91,0,0,1,.505-2.366A3.3,3.3,0,0,1-14.7-8.224,4.189,4.189,0,0,1-12.735-8.684Zm7.657,0a4.7,4.7,0,0,1,2.014.406A2.893,2.893,0,0,1-1.716-6.953,5.291,5.291,0,0,1-1.234-4.5a5.291,5.291,0,0,1-.482,2.45A2.893,2.893,0,0,1-3.064-.728a4.7,4.7,0,0,1-2.014.406,4.657,4.657,0,0,1-2-.406A2.931,2.931,0,0,1-8.431-2.053a5.221,5.221,0,0,1-.49-2.45,5.221,5.221,0,0,1,.49-2.45A2.931,2.931,0,0,1-7.076-8.278,4.657,4.657,0,0,1-5.078-8.684Zm0,.306q-.536,0-.9.911A8.77,8.77,0,0,0-6.333-4.5a8.77,8.77,0,0,0,.36,2.963q.36.911.9.911.551,0,.9-.911A8.949,8.949,0,0,0-3.822-4.5a8.949,8.949,0,0,0-.352-2.963Q-4.526-8.377-5.078-8.377ZM5.5-8.684a2.866,2.866,0,0,1,1.08.168,1.557,1.557,0,0,1,.62.429,1.838,1.838,0,0,1,.36.75A5.323,5.323,0,0,1,7.679-6.1v4.135a1.344,1.344,0,0,0,.207.873.924.924,0,0,0,.712.23v.322q-.306-.015-.911-.038T6.515-.6q-.628,0-1.21.023t-.873.038V-.858a.694.694,0,0,0,.6-.23A1.583,1.583,0,0,0,5.2-1.961v-4.87a2.1,2.1,0,0,0-.077-.6.7.7,0,0,0-.26-.383.892.892,0,0,0-.521-.13,1.219,1.219,0,0,0-.919.406,1.446,1.446,0,0,0-.383,1.034v4.548a1.583,1.583,0,0,0,.168.873.694.694,0,0,0,.6.23v.322q-.291-.015-.842-.038T1.844-.6Q1.216-.6.589-.575t-.949.038V-.858a.924.924,0,0,0,.712-.23,1.344,1.344,0,0,0,.207-.873V-6.8a2.024,2.024,0,0,0-.2-1.018.771.771,0,0,0-.72-.329v-.322q.49.046.949.046.689,0,1.309-.054a9.9,9.9,0,0,0,1.141-.161V-7.4a2.128,2.128,0,0,1,1-1A3.479,3.479,0,0,1,5.5-8.684Zm7.228-2.7q.413.015,1.1.031t1.378.015q.75,0,1.447-.015t.988-.015a5.324,5.324,0,0,1,2.979.674,2.023,2.023,0,0,1,.988,1.73,2.05,2.05,0,0,1-.352,1.095,3.161,3.161,0,0,1-1.08,1,5.05,5.05,0,0,1-1.861.6v.031a6.677,6.677,0,0,1,2.4.513,3.132,3.132,0,0,1,1.294,1,2.113,2.113,0,0,1,.4,1.21,2.46,2.46,0,0,1-1.179,2.228A6.032,6.032,0,0,1,18-.536q-.368,0-1.072-.023T15.244-.582q-.72,0-1.409.008t-1.1.038V-.843a2.546,2.546,0,0,0,.712-.123.534.534,0,0,0,.322-.368,3.028,3.028,0,0,0,.084-.827v-7.6a3.016,3.016,0,0,0-.084-.835.555.555,0,0,0-.322-.368,2.116,2.116,0,0,0-.712-.115Zm4.778.306q-.567,0-.727.26a2.284,2.284,0,0,0-.161,1.057v7.6a1.773,1.773,0,0,0,.2,1.034,1.072,1.072,0,0,0,.827.237,1.582,1.582,0,0,0,1.432-.7,3.644,3.644,0,0,0,.452-1.983,2.645,2.645,0,0,0-.574-1.822,2.448,2.448,0,0,0-1.907-.643h-1.21v-.26h1.317a1.386,1.386,0,0,0,1.011-.345,1.857,1.857,0,0,0,.49-.919A5.272,5.272,0,0,0,18.8-8.791a3.819,3.819,0,0,0-.3-1.708A1.028,1.028,0,0,0,17.511-11.072Zm7.672-1.394a1.768,1.768,0,0,1,1.126.322,1.121,1.121,0,0,1,.406.934,1.121,1.121,0,0,1-.406.934,1.768,1.768,0,0,1-1.126.322,1.768,1.768,0,0,1-1.126-.322,1.121,1.121,0,0,1-.406-.934,1.121,1.121,0,0,1,.406-.934A1.768,1.768,0,0,1,25.183-12.466ZM26.53-8.638v6.677a1.344,1.344,0,0,0,.207.873.924.924,0,0,0,.712.23v.322q-.306-.015-.9-.038T25.336-.6q-.613,0-1.248.023t-.957.038V-.858a.924.924,0,0,0,.712-.23,1.344,1.344,0,0,0,.207-.873V-6.8a2.024,2.024,0,0,0-.2-1.018.771.771,0,0,0-.72-.329v-.322q.49.046.949.046.689,0,1.309-.054A9.9,9.9,0,0,0,26.53-8.638Zm4.548,10.98a8.4,8.4,0,0,1-1.746-.161,2.941,2.941,0,0,1-1.164-.475.928.928,0,0,1-.413-.758,1.1,1.1,0,0,1,.429-.835A3.109,3.109,0,0,1,29.5-.475l.138.245a1.665,1.665,0,0,0-.368.513,1.268,1.268,0,0,0-.107.5,1.064,1.064,0,0,0,.567.965,3.059,3.059,0,0,0,1.562.337,3.37,3.37,0,0,0,1.194-.191,1.749,1.749,0,0,0,.781-.544A1.3,1.3,0,0,0,33.544.52a.985.985,0,0,0-.329-.75A2.028,2.028,0,0,0,31.89-.536H31A3.4,3.4,0,0,1,29.869-.7a1.617,1.617,0,0,1-.727-.475,1.163,1.163,0,0,1-.253-.766,1.519,1.519,0,0,1,.536-1.172,5.508,5.508,0,0,1,1.485-.9l.138.123a2.91,2.91,0,0,0-.436.322.623.623,0,0,0-.207.49q0,.49.582.49h1.577a4.674,4.674,0,0,1,2.259.482A1.694,1.694,0,0,1,35.7-.491a2.274,2.274,0,0,1-.49,1.409,3.34,3.34,0,0,1-1.508,1.034A7.44,7.44,0,0,1,31.079,2.343Zm.2-6.141A4.018,4.018,0,0,1,29-4.4a2.07,2.07,0,0,1-.9-1.853A2.047,2.047,0,0,1,29-8.1a4.1,4.1,0,0,1,2.274-.582,4.107,4.107,0,0,1,2.266.582,2.042,2.042,0,0,1,.9,1.853,2.064,2.064,0,0,1-.9,1.853A4.027,4.027,0,0,1,31.278-3.8Zm0-.276q.337,0,.544-.475a4.777,4.777,0,0,0,.207-1.7,4.708,4.708,0,0,0-.207-1.692q-.207-.467-.544-.467-.352,0-.551.467a4.877,4.877,0,0,0-.2,1.692,4.949,4.949,0,0,0,.2,1.7Q30.926-4.074,31.278-4.074Zm2.435-3.277-.322-.107a2.3,2.3,0,0,1,.758-1.018,1.817,1.817,0,0,1,1.126-.391.978.978,0,0,1,.758.276,1.023,1.023,0,0,1,.253.72.922.922,0,0,1-.237.681.765.765,0,0,1-.559.237.772.772,0,0,1-.505-.191.8.8,0,0,1-.26-.582A1.951,1.951,0,0,1,35-8.714l.092.092a2.338,2.338,0,0,0-.865.49A2.442,2.442,0,0,0,33.713-7.351ZM40.42-8.684a4.7,4.7,0,0,1,2.014.406,2.893,2.893,0,0,1,1.348,1.325,5.291,5.291,0,0,1,.482,2.45,5.291,5.291,0,0,1-.482,2.45A2.893,2.893,0,0,1,42.434-.728a4.7,4.7,0,0,1-2.014.406,4.657,4.657,0,0,1-2-.406,2.931,2.931,0,0,1-1.355-1.325,5.221,5.221,0,0,1-.49-2.45,5.221,5.221,0,0,1,.49-2.45,2.931,2.931,0,0,1,1.355-1.325A4.657,4.657,0,0,1,40.42-8.684Zm0,.306q-.536,0-.9.911a8.77,8.77,0,0,0-.36,2.963,8.77,8.77,0,0,0,.36,2.963q.36.911.9.911.551,0,.9-.911A8.949,8.949,0,0,0,41.676-4.5a8.949,8.949,0,0,0-.352-2.963Q40.972-8.377,40.42-8.377Zm8.04-2.588v2.5h1.654v.306H48.46V-1.9a.839.839,0,0,0,.138.544.515.515,0,0,0,.413.161.935.935,0,0,0,.482-.153,1.434,1.434,0,0,0,.467-.521l.245.153A2.6,2.6,0,0,1,49.4-.7a2.184,2.184,0,0,1-1.34.383,2.83,2.83,0,0,1-.9-.13,1.634,1.634,0,0,1-.651-.391,1.592,1.592,0,0,1-.436-.835,6.825,6.825,0,0,1-.1-1.294V-8.163H44.754v-.306h1.225v-1.914a5.963,5.963,0,0,0,1.325-.138A4.368,4.368,0,0,0,48.46-10.965Zm5.988,2.282a2.794,2.794,0,0,1,2.113.8,3.7,3.7,0,0,1,.766,2.619H52.411L52.4-5.559h2.848a7.553,7.553,0,0,0-.061-1.386,3.1,3.1,0,0,0-.3-1.018.615.615,0,0,0-.544-.383q-.459,0-.781.659a6.233,6.233,0,0,0-.4,2.236l.061.107A1.922,1.922,0,0,0,53.192-5v.375a4.157,4.157,0,0,0,.283,1.685,1.917,1.917,0,0,0,.712.888,1.689,1.689,0,0,0,.888.26,2.747,2.747,0,0,0,.911-.191,2.237,2.237,0,0,0,1.018-.926l.26.092a3.837,3.837,0,0,1-.574,1.172A3.355,3.355,0,0,1,55.658-.7a2.9,2.9,0,0,1-1.516.375,3.806,3.806,0,0,1-1.807-.421,2.994,2.994,0,0,1-1.263-1.332A5.228,5.228,0,0,1,50.6-4.457a4.993,4.993,0,0,1,.505-2.389,3.253,3.253,0,0,1,1.378-1.386A4.2,4.2,0,0,1,54.448-8.684Z" transform="translate(116.243 -1.488)" fill="#a2886f"/>
  </g>
</svg>
