<svg xmlns="http://www.w3.org/2000/svg" width="172.328" height="45.161"><g data-name="Group 5"><path data-name="Path 2364" d="M17.366 11.348a12 12 0 014.985.9 17.1 17.1 0 013.469 2.09q.919.689 1.4.161a4.844 4.844 0 00.666-2.5h1.057q-.092 1.838-.138 4.479t-.046 7.006h-1.057a26.3 26.3 0 00-.6-3.928 10.313 10.313 0 00-1.24-3.055 7.6 7.6 0 00-2.389-2.343 8.764 8.764 0 00-2.045-1.018 6.867 6.867 0 00-2.228-.368 6.429 6.429 0 00-4.319 1.447 9.568 9.568 0 00-2.642 3.767 20.728 20.728 0 00-1.309 5.054 39.818 39.818 0 00-.368 5.306 39.818 39.818 0 00.368 5.306 20.728 20.728 0 001.314 5.052 9.568 9.568 0 002.641 3.77 6.429 6.429 0 004.319 1.447 6.5 6.5 0 002.224-.391 10.946 10.946 0 002.044-.988 7.054 7.054 0 003.1-3.813 26.921 26.921 0 001.126-6.156h1.057q0 4.5.046 7.282t.138 4.663h-1.057a5.134 5.134 0 00-.62-2.481q-.436-.505-1.447.138a24.042 24.042 0 01-3.606 2.09 11.543 11.543 0 01-4.893.9 19.9 19.9 0 01-9.1-1.976 14.335 14.335 0 01-6.064-5.7A17.56 17.56 0 01-.007 28.53a17.689 17.689 0 012.228-9 15.76 15.76 0 016.14-6.026 18.3 18.3 0 019.005-2.156zm27.887 8.683a8.5 8.5 0 016.363 2.366q2.32 2.366 2.32 7.925h-14.38l-.092-.873h7.764a29.792 29.792 0 00-.184-4.158 11.016 11.016 0 00-.735-3.055q-.505-1.149-1.378-1.149-1.24 0-2.021 1.953a22.993 22.993 0 00-1.011 6.685l.184.368q-.046.459-.046.919v.965a12.546 12.546 0 00.8 5.008 5.121 5.121 0 002.025 2.479 4.944 4.944 0 002.458.689 8.964 8.964 0 002.481-.482 6.414 6.414 0 003.078-2.6l.781.276a13.57 13.57 0 01-1.769 3.657 9.955 9.955 0 01-3.147 2.986 8.868 8.868 0 01-4.686 1.171 11.893 11.893 0 01-5.352-1.194 8.651 8.651 0 01-3.836-3.951 16.214 16.214 0 01-1.424-7.4 14.585 14.585 0 011.562-7.19 9.679 9.679 0 014.25-4.089 13.507 13.507 0 015.995-1.306zm27.887 0a4.112 4.112 0 012.573.712 3.756 3.756 0 011.286 1.792 6.6 6.6 0 01.368 2.136 4.538 4.538 0 01-1.172 3.285 4.049 4.049 0 01-3.055 1.217 4.47 4.47 0 01-3.055-.919 3.047 3.047 0 01-1.034-2.389 4.587 4.587 0 01.666-2.573 6.109 6.109 0 011.677-1.7 3.244 3.244 0 00-1.47.322 4.419 4.419 0 00-1.355.942 4.848 4.848 0 00-.988 1.424 4.094 4.094 0 00-.368 1.724v13.782a3.82 3.82 0 00.915 2.986 4.678 4.678 0 003.032.781v.965q-1.057-.046-3.147-.115t-4.3-.069q-2.067 0-4.181.069t-3.17.115v-.965a2.482 2.482 0 002-.689 4.28 4.28 0 00.574-2.619V25.682a6.5 6.5 0 00-.551-3.055 2.109 2.109 0 00-2.021-.988v-.965q1.47.138 2.848.138 2.3 0 4.3-.161a35.092 35.092 0 003.7-.482v3.308a6.239 6.239 0 011.47-1.953 5.724 5.724 0 012-1.126 7.879 7.879 0 012.457-.367zm29.035.643v.965a4.15 4.15 0 00-1.677 1.265 10.34 10.34 0 00-1.585 3.193l-6.202 18.421q-1.1-.092-2.228-.092t-2.228.092L80.26 24.212a4.248 4.248 0 00-1.424-2.159 2.668 2.668 0 00-1.24-.413v-.965q1.838.138 3.813.207t4.364.069q1.424 0 3.009-.092t2.963-.184v.965a14.618 14.618 0 00-1.492.064 1.418 1.418 0 00-.965.413 1.518 1.518 0 00-.115 1.263l5.146 14.339-.6.919 2.573-7.672q1.562-4.64.551-6.914a3.536 3.536 0 00-3.032-2.412v-.965q.965.092 2.481.138t2.343.046q.827 0 1.93-.046a13.019 13.019 0 001.61-.139zm13.047-.643a8.5 8.5 0 016.363 2.366q2.32 2.366 2.32 7.925h-14.377l-.092-.873h7.762a29.791 29.791 0 00-.184-4.158 11.016 11.016 0 00-.735-3.055q-.505-1.149-1.378-1.149-1.24 0-2.021 1.953a22.993 22.993 0 00-1.011 6.685l.184.368q-.046.459-.046.919v.965a12.546 12.546 0 00.8 5.008 5.121 5.121 0 002.021 2.479 4.944 4.944 0 002.458.689 8.964 8.964 0 002.481-.482 6.414 6.414 0 003.078-2.6l.781.276a13.57 13.57 0 01-1.765 3.657 9.955 9.955 0 01-3.147 2.986 8.868 8.868 0 01-4.686 1.171 11.893 11.893 0 01-5.352-1.194 8.651 8.651 0 01-3.836-3.951 16.214 16.214 0 01-1.424-7.4 14.585 14.585 0 011.562-7.19 9.679 9.679 0 014.25-4.089 13.507 13.507 0 015.994-1.306zm31.149.459L136.08 43.829h.648a8.333 8.333 0 003.469-.781 7.18 7.18 0 002.981-2.688 10.915 10.915 0 001.493-5.306h.919q0 3.629.046 5.858t.138 3.79q-2.113-.092-4.41-.138t-4.594-.046q-2.389 0-4.916.069t-4.826.161l10.292-23.339h-.919a7.932 7.932 0 00-3.377.781 6.708 6.708 0 00-2.848 2.688 12.048 12.048 0 00-1.448 5.306h-.919q0-3.675-.046-5.881t-.135-3.767q2.159.092 4.456.138t4.548.046q2.435 0 4.939-.069t4.8-.161zm8.821 24.35q-3.124 0-4.525-1.677a5.875 5.875 0 01-1.4-3.882 5.467 5.467 0 01.873-3.216 6.752 6.752 0 012.274-2.021 17.758 17.758 0 012.963-1.309q1.562-.528 2.963-1.034a8.5 8.5 0 002.274-1.172 2.072 2.072 0 00.873-1.723v-4.089a5.816 5.816 0 00-.253-1.608 3.3 3.3 0 00-.942-1.516 2.934 2.934 0 00-2.067-.643 4.7 4.7 0 00-1.4.207 3.98 3.98 0 00-1.172.574 4.7 4.7 0 012.341 1.673 4.116 4.116 0 01.734 2.37 3.544 3.544 0 01-1.286 2.894 4.63 4.63 0 01-3.032 1.057 3.594 3.594 0 01-2.848-1.149 4.156 4.156 0 01-1.011-2.848 4.015 4.015 0 01.712-2.412 6.765 6.765 0 012.137-1.812 10.376 10.376 0 013.308-1.126 22.971 22.971 0 014.043-.345 18.936 18.936 0 014.181.436 6.508 6.508 0 013.308 1.861 4.811 4.811 0 011.24 2.527 22.55 22.55 0 01.276 3.905v12.31a5 5 0 00.161 1.562.578.578 0 00.574.413 1.267 1.267 0 00.712-.23q.345-.23.666-.459l.459.782a6.367 6.367 0 01-2.5 1.286 11.741 11.741 0 01-3.147.413q-2.986 0-3.974-1.057a3.855 3.855 0 01-1.079-2.434 7.6 7.6 0 01-2.481 2.5 7.268 7.268 0 01-3.955.992zm4.594-3.676a2.337 2.337 0 00.9-.161 2.324 2.324 0 00.8-.62v-9.694a5.572 5.572 0 01-1.149 1.447q-.689.62-1.355 1.332a5.864 5.864 0 00-1.1 1.746 6.846 6.846 0 00-.436 2.642 3.845 3.845 0 00.666 2.573 2.167 2.167 0 001.674.735z" fill="#2c2d48"/><path data-name="Path 2363" d="M46.543 1.133q.413.015 1.1.031t1.378.015q.75 0 1.447-.015t.988-.015a5.324 5.324 0 012.979.674 2.023 2.023 0 01.988 1.73 2.05 2.05 0 01-.352 1.095 3.161 3.161 0 01-1.08 1 5.05 5.05 0 01-1.861.6v.031a6.677 6.677 0 012.4.513 3.132 3.132 0 011.294 1 2.113 2.113 0 01.4 1.21 2.46 2.46 0 01-1.181 2.231 6.032 6.032 0 01-3.231.743q-.368 0-1.072-.023t-1.685-.023q-.72 0-1.409.008t-1.1.038v-.307a2.546 2.546 0 00.712-.123.534.534 0 00.322-.368 3.028 3.028 0 00.084-.827v-7.6a3.016 3.016 0 00-.084-.835.555.555 0 00-.322-.368 2.116 2.116 0 00-.712-.115zm4.778.306q-.567 0-.727.26a2.284 2.284 0 00-.161 1.057v7.6a1.773 1.773 0 00.2 1.034 1.072 1.072 0 00.827.237 1.582 1.582 0 001.432-.7 3.644 3.644 0 00.451-1.984 2.645 2.645 0 00-.574-1.822 2.448 2.448 0 00-1.907-.643h-1.219v-.26h1.317a1.386 1.386 0 001.011-.345 1.857 1.857 0 00.49-.919 5.272 5.272 0 00.138-1.233 3.819 3.819 0 00-.3-1.708 1.028 1.028 0 00-.982-.573zm7.622 10.644a1.867 1.867 0 01-1.493-.544 1.942 1.942 0 01-.467-1.309 1.8 1.8 0 01.3-1.064 2.27 2.27 0 01.773-.681 6.191 6.191 0 011-.436q.521-.176 1-.352a2.962 2.962 0 00.766-.4.691.691 0 00.291-.574V5.452a2 2 0 00-.1-.636 1 1 0 00-.352-.49 1.13 1.13 0 00-.7-.191 1.89 1.89 0 00-.536.077 1.247 1.247 0 00-.459.245 1.419 1.419 0 01.727.505 1.273 1.273 0 01.237.75 1.11 1.11 0 01-.391.9 1.391 1.391 0 01-.926.329 1.114 1.114 0 01-.9-.368 1.322 1.322 0 01-.314-.888 1.274 1.274 0 01.23-.773 2.19 2.19 0 01.674-.574 3.4 3.4 0 011.072-.383 6.95 6.95 0 011.332-.123 5.662 5.662 0 011.325.145 2.14 2.14 0 011.034.574 1.634 1.634 0 01.429.858 7.406 7.406 0 01.088 1.283v4.135a1.382 1.382 0 00.069.528.231.231 0 00.222.145.509.509 0 00.276-.077 1.9 1.9 0 00.23-.168l.168.26a2.374 2.374 0 01-.8.421 3.281 3.281 0 01-1 .145 1.671 1.671 0 01-1.263-.369 1.31 1.31 0 01-.337-.842 2.639 2.639 0 01-.888.888 2.518 2.518 0 01-1.317.325zm1.363-1.1a.9.9 0 00.421-.1 1.16 1.16 0 00.375-.345V7.351a1.652 1.652 0 01-.444.5q-.276.207-.559.444a2.012 2.012 0 00-.475.59 1.957 1.957 0 00-.191.934 1.287 1.287 0 00.253.9.819.819 0 00.62.261zm10.092-7.152a1.381 1.381 0 01.827.222 1.271 1.271 0 01.444.567 1.825 1.825 0 01.138.681 1.416 1.416 0 01-.364 1.011 1.233 1.233 0 01-.942.383 1.372 1.372 0 01-.934-.283.96.96 0 01-.322-.758 1.368 1.368 0 01.207-.781 1.99 1.99 0 01.513-.521.829.829 0 00-.444.061 1.19 1.19 0 00-.6.345 1.973 1.973 0 00-.406.613 1.813 1.813 0 00-.145.712v4.319a1.219 1.219 0 00.329 1 1.694 1.694 0 001.049.26v.322q-.352-.015-1.041-.038t-1.418-.034q-.658 0-1.325.023t-.988.038v-.319a.924.924 0 00.712-.23 1.344 1.344 0 00.207-.873V5.712a2.024 2.024 0 00-.2-1.018.771.771 0 00-.72-.329v-.322q.49.046.949.046.689 0 1.309-.054a9.9 9.9 0 001.141-.161V5.13a2.293 2.293 0 01.482-.689 2.152 2.152 0 01.689-.452 2.211 2.211 0 01.853-.161zm7.014 0a2.392 2.392 0 011.937.957 4.647 4.647 0 01.773 2.948 6.076 6.076 0 01-.479 2.639 2.963 2.963 0 01-1.286 1.4 3.81 3.81 0 01-1.769.413 3.806 3.806 0 01-1.052-.136 2.166 2.166 0 01-.881-.505l.2-.153a1.538 1.538 0 00.551.36 1.7 1.7 0 00.6.115q.781 0 1.156-.957a8.432 8.432 0 00.375-2.9 11.543 11.543 0 00-.145-2.083 2.37 2.37 0 00-.413-1.064.812.812 0 00-.636-.314 1.223 1.223 0 00-.865.375 1.447 1.447 0 00-.421 1.018l-.031-.643a2.221 2.221 0 01.934-1.1 2.827 2.827 0 011.452-.373zM75.069.003v11.835a2.589 2.589 0 00-.9-.115 3.087 3.087 0 00-.842.153 1.675 1.675 0 00-.613.345l-.23-.138a1.612 1.612 0 00.092-.429q.015-.214.015-.429V1.838A2.092 2.092 0 0072.4.82a.769.769 0 00-.727-.329V.169q.49.046.949.046.7 0 1.317-.054A9.924 9.924 0 0075.069 0zm7.933 12.08a1.867 1.867 0 01-1.493-.544 1.942 1.942 0 01-.466-1.309 1.8 1.8 0 01.3-1.064 2.27 2.27 0 01.773-.681 6.191 6.191 0 011-.436q.521-.176 1-.352a2.962 2.962 0 00.766-.4.691.691 0 00.291-.574V5.452a2 2 0 00-.1-.636 1 1 0 00-.352-.49 1.13 1.13 0 00-.7-.191 1.89 1.89 0 00-.536.077 1.247 1.247 0 00-.459.245 1.419 1.419 0 01.727.505 1.273 1.273 0 01.237.75 1.11 1.11 0 01-.391.9 1.391 1.391 0 01-.926.329 1.114 1.114 0 01-.9-.368 1.322 1.322 0 01-.314-.888 1.274 1.274 0 01.23-.773 2.19 2.19 0 01.674-.574 3.4 3.4 0 011.072-.383 6.95 6.95 0 011.332-.123 5.662 5.662 0 011.325.145 2.14 2.14 0 011.034.574 1.634 1.634 0 01.429.858 7.406 7.406 0 01.088 1.283v4.135a1.382 1.382 0 00.069.528.231.231 0 00.222.145.509.509 0 00.276-.077 1.9 1.9 0 00.23-.168l.168.26a2.374 2.374 0 01-.8.421 3.281 3.281 0 01-1 .145 1.671 1.671 0 01-1.265-.369 1.31 1.31 0 01-.337-.842 2.639 2.639 0 01-.888.888 2.518 2.518 0 01-1.316.325zm1.363-1.1a.9.9 0 00.421-.1 1.16 1.16 0 00.375-.345V7.351a1.652 1.652 0 01-.444.5q-.276.207-.559.444a2.012 2.012 0 00-.475.59 1.957 1.957 0 00-.191.934 1.287 1.287 0 00.253.9.819.819 0 00.619.261zm12.144-7.152a4.617 4.617 0 011.149.13 3 3 0 01.827.329 1.99 1.99 0 01.643.628 1.612 1.612 0 01.245.888 1.334 1.334 0 01-.383.972 1.3 1.3 0 01-.965.391 1.257 1.257 0 01-.942-.357 1.238 1.238 0 01-.345-.9 1.288 1.288 0 01.337-.9 1.636 1.636 0 01.8-.49.92.92 0 00-.314-.2 1.213 1.213 0 00-.452-.077 1.3 1.3 0 00-.873.3 2.172 2.172 0 00-.574.812 4.723 4.723 0 00-.322 1.149 8.451 8.451 0 00-.1 1.309 4.248 4.248 0 00.3 1.769 1.89 1.89 0 00.75.888 1.876 1.876 0 00.926.253 2.692 2.692 0 00.9-.2 2.277 2.277 0 001.027-.938l.26.092a4.027 4.027 0 01-.567 1.179 3.236 3.236 0 01-1.026.954 2.935 2.935 0 01-1.531.375 4 4 0 01-1.83-.413 3.032 3.032 0 01-1.306-1.33 5.105 5.105 0 01-.49-2.4 4.91 4.91 0 01.505-2.366 3.3 3.3 0 011.385-1.39 4.189 4.189 0 011.965-.46zm7.657 0a4.7 4.7 0 012.014.406 2.893 2.893 0 011.347 1.322 5.291 5.291 0 01.482 2.453 5.291 5.291 0 01-.482 2.45 2.893 2.893 0 01-1.348 1.322 4.7 4.7 0 01-2.014.406 4.657 4.657 0 01-2-.406 2.931 2.931 0 01-1.353-1.325 5.221 5.221 0 01-.49-2.45 5.221 5.221 0 01.49-2.45 2.931 2.931 0 011.355-1.325 4.657 4.657 0 011.998-.406zm0 .306q-.536 0-.9.911a8.77 8.77 0 00-.356 2.964 8.77 8.77 0 00.36 2.963q.36.911.9.911.551 0 .9-.911a8.949 8.949 0 00.351-2.963 8.949 8.949 0 00-.352-2.963q-.352-.914-.904-.914zm10.577-.309a2.866 2.866 0 011.08.168 1.557 1.557 0 01.62.429 1.838 1.838 0 01.36.75 5.323 5.323 0 01.119 1.237v4.135a1.344 1.344 0 00.207.873.924.924 0 00.712.23v.322q-.306-.015-.911-.038t-1.172-.022q-.628 0-1.21.023t-.873.038v-.319a.694.694 0 00.6-.23 1.583 1.583 0 00.168-.873v-4.87a2.1 2.1 0 00-.077-.6.7.7 0 00-.26-.383.892.892 0 00-.521-.13 1.219 1.219 0 00-.919.406 1.446 1.446 0 00-.383 1.034v4.548a1.583 1.583 0 00.168.873.694.694 0 00.6.23v.322q-.291-.015-.842-.038t-1.122-.031q-.628 0-1.255.025t-.949.038v-.321a.924.924 0 00.712-.23 1.344 1.344 0 00.207-.873V5.712a2.024 2.024 0 00-.2-1.018.771.771 0 00-.72-.329v-.322q.49.046.949.046.689 0 1.309-.054a9.9 9.9 0 001.141-.161v1.238a2.128 2.128 0 011-1 3.479 3.479 0 011.462-.284zm7.228-2.7q.413.015 1.1.031t1.378.015q.75 0 1.447-.015t.988-.015a5.324 5.324 0 012.979.674 2.023 2.023 0 01.988 1.73 2.05 2.05 0 01-.352 1.095 3.161 3.161 0 01-1.08 1 5.05 5.05 0 01-1.861.6v.031a6.677 6.677 0 012.4.513 3.132 3.132 0 011.294 1 2.113 2.113 0 01.4 1.21 2.46 2.46 0 01-1.179 2.228 6.032 6.032 0 01-3.23.751q-.368 0-1.072-.023t-1.684-.023q-.72 0-1.409.008t-1.1.038v-.307a2.546 2.546 0 00.712-.123.534.534 0 00.322-.368 3.028 3.028 0 00.084-.827v-7.6a3.016 3.016 0 00-.084-.835.555.555 0 00-.322-.368 2.116 2.116 0 00-.712-.115zm4.778.306q-.567 0-.727.26a2.284 2.284 0 00-.161 1.057v7.6a1.773 1.773 0 00.2 1.034 1.072 1.072 0 00.827.237 1.582 1.582 0 001.432-.7 3.644 3.644 0 00.452-1.983 2.645 2.645 0 00-.574-1.822 2.448 2.448 0 00-1.907-.643h-1.21v-.26h1.317a1.386 1.386 0 001.011-.345 1.857 1.857 0 00.49-.919 5.272 5.272 0 00.144-1.229 3.819 3.819 0 00-.3-1.708 1.028 1.028 0 00-.989-.573zM134.421.04a1.768 1.768 0 011.126.322 1.121 1.121 0 01.406.934 1.121 1.121 0 01-.406.934 1.768 1.768 0 01-1.126.322 1.768 1.768 0 01-1.126-.322 1.121 1.121 0 01-.406-.934 1.121 1.121 0 01.406-.934 1.768 1.768 0 011.131-.316zm1.352 3.834v6.677a1.344 1.344 0 00.207.873.924.924 0 00.712.23v.322q-.306-.015-.9-.038t-1.213-.026q-.613 0-1.248.023t-.957.038v-.319a.924.924 0 00.712-.23 1.344 1.344 0 00.207-.873V5.712a2.024 2.024 0 00-.2-1.018.771.771 0 00-.72-.329v-.322q.49.046.949.046.689 0 1.309-.054a9.9 9.9 0 001.142-.161zm4.548 10.98a8.4 8.4 0 01-1.746-.161 2.941 2.941 0 01-1.164-.475.928.928 0 01-.413-.758 1.1 1.1 0 01.429-.835 3.109 3.109 0 011.316-.588l.138.245a1.665 1.665 0 00-.368.513 1.268 1.268 0 00-.107.5 1.064 1.064 0 00.567.965 3.059 3.059 0 001.562.337 3.37 3.37 0 001.194-.191 1.749 1.749 0 00.781-.544 1.3 1.3 0 00.277-.83.985.985 0 00-.329-.75 2.028 2.028 0 00-1.325-.306h-.89a3.4 3.4 0 01-1.131-.164 1.617 1.617 0 01-.727-.475 1.163 1.163 0 01-.253-.766 1.519 1.519 0 01.536-1.172 5.508 5.508 0 011.485-.9l.138.123a2.91 2.91 0 00-.436.322.623.623 0 00-.207.49q0 .49.582.49h1.577a4.674 4.674 0 012.259.482 1.694 1.694 0 01.877 1.615 2.274 2.274 0 01-.49 1.409 3.34 3.34 0 01-1.508 1.034 7.44 7.44 0 01-2.623.391zm.2-6.141a4.018 4.018 0 01-2.278-.601 2.07 2.07 0 01-.9-1.853 2.047 2.047 0 01.9-1.847 4.1 4.1 0 012.274-.582 4.107 4.107 0 012.266.582 2.042 2.042 0 01.9 1.853 2.064 2.064 0 01-.9 1.853 4.027 4.027 0 01-2.262.594zm0-.276q.337 0 .544-.475a4.777 4.777 0 00.207-1.7 4.708 4.708 0 00-.207-1.692q-.207-.467-.544-.467-.352 0-.551.467a4.877 4.877 0 00-.2 1.692 4.949 4.949 0 00.2 1.7q.199.476.551.476zm2.435-3.277l-.322-.107a2.3 2.3 0 01.758-1.018 1.817 1.817 0 011.126-.391.978.978 0 01.758.276 1.023 1.023 0 01.253.72.922.922 0 01-.237.681.765.765 0 01-.559.237.772.772 0 01-.505-.191.8.8 0 01-.26-.582 1.951 1.951 0 01.275-.987l.092.092a2.338 2.338 0 00-.865.49 2.442 2.442 0 00-.514.781zm6.707-1.332a4.7 4.7 0 012.014.406 2.893 2.893 0 011.348 1.325 5.291 5.291 0 01.482 2.45 5.291 5.291 0 01-.482 2.45 2.893 2.893 0 01-1.348 1.325 4.7 4.7 0 01-2.014.406 4.657 4.657 0 01-2-.406 2.931 2.931 0 01-1.355-1.325 5.221 5.221 0 01-.49-2.45 5.221 5.221 0 01.49-2.45 2.931 2.931 0 011.355-1.325 4.657 4.657 0 012-.406zm0 .306q-.536 0-.9.911a8.77 8.77 0 00-.36 2.963 8.77 8.77 0 00.36 2.963q.36.911.9.911.551 0 .9-.911a8.949 8.949 0 00.356-2.959 8.949 8.949 0 00-.352-2.963q-.352-.914-.904-.914zm8.04-2.588v2.5h1.654v.306h-1.654v6.26a.839.839 0 00.138.544.515.515 0 00.413.161.935.935 0 00.482-.153 1.434 1.434 0 00.467-.521l.245.153a2.6 2.6 0 01-.805 1.016 2.184 2.184 0 01-1.34.383 2.83 2.83 0 01-.9-.13 1.634 1.634 0 01-.651-.391 1.592 1.592 0 01-.436-.835 6.825 6.825 0 01-.1-1.294V4.349h-1.219v-.306h1.225V2.129a5.963 5.963 0 001.325-.138 4.368 4.368 0 001.156-.444zm5.988 2.282a2.794 2.794 0 012.113.8 3.7 3.7 0 01.766 2.619h-4.916l-.011-.294h2.848a7.553 7.553 0 00-.061-1.386 3.1 3.1 0 00-.3-1.018.615.615 0 00-.544-.383q-.459 0-.781.659a6.233 6.233 0 00-.4 2.236l.061.107a1.922 1.922 0 00-.031.344v.375a4.157 4.157 0 00.283 1.685 1.917 1.917 0 00.712.888 1.689 1.689 0 00.888.26 2.747 2.747 0 00.911-.191 2.237 2.237 0 001.018-.926l.26.092a3.837 3.837 0 01-.574 1.172 3.355 3.355 0 01-1.032.945 2.9 2.9 0 01-1.516.375 3.806 3.806 0 01-1.807-.421 2.994 2.994 0 01-1.263-1.332 5.228 5.228 0 01-.472-2.379 4.993 4.993 0 01.505-2.389 3.253 3.253 0 011.378-1.386 4.2 4.2 0 011.965-.452z" fill="#a2886f"/></g></svg>