<svg xmlns="http://www.w3.org/2000/svg" width="31.5" height="19.748"><path d="M12.687 8.848a4.15 4.15 0 002.647-4.047c0-3.861-2.877-4.8-6.2-4.8H0v19.375h9.4c3.522 0 6.83-1.69 6.83-5.627a4.67 4.67 0 00-3.543-4.901zM4.26 3.308h4c1.537 0 2.92.432 2.92 2.215 0 1.646-1.077 2.308-2.6 2.308H4.26zm4.555 12.78H4.26v-5.337h4.643c1.876 0 3.062.782 3.062 2.767.001 1.958-1.415 2.57-3.149 2.57zM28.421 2.925V1.016h-7.859v1.909zm3.079 9.642c0-4.151-2.428-7.612-6.83-7.612-4.277 0-7.18 3.216-7.18 7.427 0 4.37 2.751 7.366 7.18 7.366a6.256 6.256 0 006.568-4.72h-3.4a3.193 3.193 0 01-3.048 1.832c-2.259 0-3.445-1.323-3.445-3.571h10.122c.017-.23.033-.476.033-.722zM21.35 10.86a3.012 3.012 0 013.2-3c1.936 0 2.909 1.137 3.073 3z" fill="#2c2d48"/></svg>