<svg xmlns="http://www.w3.org/2000/svg" width="27.125" height="27.125"><path d="M13.563 0A13.578 13.578 0 000 13.562a13.578 13.578 0 0013.563 13.562 13.578 13.578 0 0013.562-13.562A13.578 13.578 0 0013.563 0zm8.967 6.254a11.529 11.529 0 012.616 7.216 27.07 27.07 0 00-8.066-.373 38.157 38.157 0 00-1.017-2.275 15.431 15.431 0 006.467-4.568zm-1.288-1.34a13.079 13.079 0 01-6.071 4.185 61.841 61.841 0 00-4.322-6.782 11.555 11.555 0 0110.393 2.597zm-12.6-1.818a73.921 73.921 0 014.295 6.7 43.209 43.209 0 01-10.71 1.411 11.627 11.627 0 016.411-8.111zM1.983 13.58c0-.118 0-.236.006-.354a42.731 42.731 0 0011.901-1.649c.332.649.648 1.308.939 1.966a17.943 17.943 0 00-9.872 7.782 11.538 11.538 0 01-2.978-7.745zm4.474 9.139c1.206-2.474 4.489-5.667 9.16-7.257a48.155 48.155 0 012.471 8.781 11.561 11.561 0 01-11.636-1.524zm13.579.464a50.006 50.006 0 00-2.251-8.26 17 17 0 017.216.5 11.6 11.6 0 01-4.965 7.76z" fill="#2c2d48"/></svg>