<svg xmlns="http://www.w3.org/2000/svg" width="24.514" height="24.508"><path d="M12.259 5.971a6.274 6.274 0 00-6.284 6.284 6.274 6.274 0 006.284 6.283 6.274 6.274 0 006.284-6.284 6.274 6.274 0 00-6.284-6.283zm0 10.369a4.093 4.093 0 01-4.085-4.085 4.089 4.089 0 014.085-4.086 4.089 4.089 0 014.085 4.085 4.093 4.093 0 01-4.085 4.086zm8.007-10.626A1.466 1.466 0 0018.8 4.248a1.466 1.466 0 00-1.466 1.466A1.462 1.462 0 0018.8 7.18a1.462 1.462 0 001.466-1.466zm4.162 1.488a7.253 7.253 0 00-1.98-5.135 7.3 7.3 0 00-5.135-1.98c-2.023-.115-8.088-.115-10.112 0A7.29 7.29 0 002.066 2.06a7.277 7.277 0 00-1.98 5.135c-.115 2.023-.115 8.088 0 10.112a7.253 7.253 0 001.98 5.135 7.31 7.31 0 005.135 1.98c2.023.115 8.088.115 10.112 0a7.253 7.253 0 005.135-1.98 7.3 7.3 0 001.98-5.135c.114-2.023.114-8.082-.001-10.106zm-2.615 12.277a4.136 4.136 0 01-2.329 2.329c-1.613.64-5.441.492-7.224.492s-5.616.142-7.224-.492a4.136 4.136 0 01-2.33-2.33c-.64-1.613-.492-5.441-.492-7.224s-.142-5.616.492-7.224a4.136 4.136 0 012.33-2.33c1.613-.64 5.441-.492 7.224-.492s5.616-.142 7.224.492a4.136 4.136 0 012.33 2.33c.64 1.613.492 5.441.492 7.224s.148 5.617-.493 7.225z" fill="#2c2d48"/></svg>