<svg xmlns="http://www.w3.org/2000/svg" width="28" height="22.741"><path d="M25.122 5.67A12.335 12.335 0 0028 2.7a11.5 11.5 0 01-3.3.888A5.723 5.723 0 0027.223.426a11.3 11.3 0 01-3.642 1.386A5.725 5.725 0 0019.383 0a5.736 5.736 0 00-5.738 5.738 6.478 6.478 0 00.142 1.315A16.312 16.312 0 011.955 1.048a5.7 5.7 0 00-.782 2.9 5.734 5.734 0 002.558 4.779 5.779 5.779 0 01-2.594-.728v.071a5.739 5.739 0 004.6 5.632 6.068 6.068 0 01-1.51.2 7.233 7.233 0 01-1.084-.089 5.749 5.749 0 005.367 3.971 11.493 11.493 0 01-7.124 2.452A11.876 11.876 0 010 20.164a16.217 16.217 0 008.812 2.577c10.553 0 16.328-8.742 16.328-16.328 0-.248 0-.497-.018-.743z" fill="#2c2d48"/></svg>